<?xml version="1.0" encoding="utf-8"?>
<!-- Generator: Adobe Illustrator 22.0.1, SVG Export Plug-In . SVG Version: 6.00 Build 0)  -->
<svg version="1.1" id="Layer_1" xmlns="http://www.w3.org/2000/svg" xmlns:xlink="http://www.w3.org/1999/xlink" x="0px" y="0px"
	 viewBox="0 0 200 200" style="enable-background:new 0 0 200 200;" xml:space="preserve">
<style type="text/css">
	.st0{fill:#CC0000;}
</style>
<rect y="0" class="st0" width="200" height="200"/>
<path d="M133.9,85.1c3.3,7.6,4.2,16.6,1.7,25.3c-5.7,19.6-26.3,30.9-45.9,25.2c-6.2-1.8-11.5-5.1-15.7-9.3l-9.8,6.8
	c8.9,9.7,21.7,15.7,35.9,15.7c8.9,0,17.2-2.4,24.4-6.5l5.9,10.2c-7.3,4.2-15.6,7-24.4,7.8v11.8c37.2-3,66.4-34.1,66.4-72.1
	c0-7.3-1.1-14.3-3.1-21l11.2-3.5c2.4,7.7,3.6,16,3.6,24.5c0,46.4-37.7,84.1-84.1,84.1c-46.4,0-84.1-37.7-84.1-84.1
	c0-46.4,37.7-84.1,84.1-84.1c27.8,0,52.5,13.5,67.8,34.3l0,0l-9.4,7c-2.7-3.6-5.6-7-8.9-10l-7.3,9.3c11.3,11,18.4,26.4,18.4,43.4
	c0,11-3,21.4-8.1,30.3l-10.2-5.9c4.2-7.2,6.5-15.5,6.5-24.4c0-24.9-18.7-45.5-42.9-48.4v11.9c1.5,0.2,3,0.6,4.5,1l-3.3,11.3
	c-13.4-3.9-27.4,3.8-31.3,17.2c-3.9,13.4,3.8,27.4,17.2,31.3c13.4,3.9,27.4-3.8,31.3-17.2c0.1-0.4,0.2-0.8,0.3-1.2h-12.4
	c-2.2,4.5-6.8,7.6-12.1,7.6c-7.4,0-13.5-6-13.5-13.5c0-7.4,6-13.5,13.5-13.5c5.3,0,9.9,3.1,12.1,7.6h12.5c-0.4-1.5-0.8-2.9-1.5-4.3
	L133.9,85.1L133.9,85.1z M67,116.7c-4.1-8.1-5.2-17.7-2.5-27.1c4.1-14.2,16-24,29.6-26.2V51.6C72.8,54.2,55.6,70.5,52,91.5l-11.6-2
	c1.8-10.4,6.3-19.8,12.7-27.7l-8.5-8.2C34,66.2,27.7,82.3,27.7,100c0,37.9,29.2,69.1,66.4,72.1v-11.8C66.9,157.6,45,137,40.4,110.5
	l11.6-2c0.9,5.4,2.8,10.4,5.3,15L67,116.7L67,116.7z M140.2,39.9c-11.5-7.7-25.3-12.2-40.2-12.2c-18,0-34.5,6.6-47.2,17.5l8.5,8.2
	c10.5-8.7,24-14,38.7-14c12.2,0,23.5,3.6,33,9.8L140.2,39.9L140.2,39.9z"/>
</svg>
